<svg xmlns="http://www.w3.org/2000/svg" viewBox="0 0 100 125"><defs><style>.cls-1{fill:#fff;}</style></defs><title>noun_Trail_549646</title><g id="Layer_2" data-name="Layer 2"><rect class="cls-1" x="28" y="19" width="41.67" height="51"/></g><g id="Layer_1" data-name="Layer 1"><path d="M50,5.2A38.3,38.3,0,0,0,37.8,79.8L50,94.8,62.2,79.9A38.36,38.36,0,0,0,50,5.2ZM66.4,33.8l-6.6,6.6a1.45,1.45,0,0,1-2,0,1.39,1.39,0,0,1,0-1.9l4.3-4.3H51.3V44.6h3.8a1.4,1.4,0,0,1,0,2.8H51.3v18a1.4,1.4,0,1,1-2.8,0v-18H37.8l4.3,4.3a1.39,1.39,0,0,1,0,1.9,1.45,1.45,0,0,1-2,0L33.5,47a1.45,1.45,0,0,1,0-2l6.6-6.6A1.34,1.34,0,0,1,42,40.3l-4.3,4.3H48.5V34.2H44.8a1.4,1.4,0,1,1,0-2.8h3.7V22.9a1.4,1.4,0,0,1,2.8,0v8.5H62.2l-4.3-4.3a1.34,1.34,0,1,1,1.9-1.9l6.6,6.6A1.34,1.34,0,0,1,66.4,33.8Z"/></g></svg>