<?xml version="1.0" encoding="utf-8"?>
<!-- Generator: Adobe Illustrator 22.1.0, SVG Export Plug-In . SVG Version: 6.00 Build 0)  -->
<svg version="1.1" xmlns="http://www.w3.org/2000/svg" xmlns:xlink="http://www.w3.org/1999/xlink" x="0px" y="0px" width="100px"
	 height="125px" viewBox="0 0 100 125" style="enable-background:new 0 0 100 125;" xml:space="preserve">
<style type="text/css">
	.st0{fill:#FFFFFF;}
</style>
<g id="Layer_2">
	<rect x="28" y="19" class="st0" width="41.7" height="51"/>
</g>
<g id="Layer_1">
	<path d="M50,5.2c-21.2,0-38.3,17.2-38.3,38.3c0,16.9,10.9,31.2,26.1,36.3l12.2,15l12.2-14.9c15.2-5.1,26.1-19.4,26.1-36.3
		C88.3,22.4,71.2,5.2,50,5.2z M66.4,33.8l-6.6,6.6c-0.3,0.3-0.6,0.4-1,0.4s-0.7-0.1-1-0.4c-0.5-0.5-0.5-1.4,0-1.9l4.3-4.3H51.3v10.4
		h3.8c0.8,0,1.4,0.6,1.4,1.4s-0.6,1.4-1.4,1.4h-3.8v18c0,0.8-0.6,1.4-1.4,1.4s-1.4-0.6-1.4-1.4v-18H37.8l4.3,4.3
		c0.5,0.5,0.5,1.4,0,1.9c-0.3,0.3-0.6,0.4-1,0.4s-0.7-0.1-1-0.4L33.5,47c-0.3-0.3-0.4-0.6-0.4-1s0.1-0.7,0.4-1l6.6-6.6
		c0.5-0.5,1.4-0.5,1.9,0s0.5,1.4,0,1.9l-4.3,4.3h10.8V34.2h-3.7c-0.8,0-1.4-0.6-1.4-1.4s0.6-1.4,1.4-1.4h3.7v-8.5
		c0-0.8,0.6-1.4,1.4-1.4s1.4,0.6,1.4,1.4v8.5h10.9l-4.3-4.3c-0.5-0.5-0.5-1.4,0-1.9s1.4-0.5,1.9,0l6.6,6.6
		C67,32.4,67,33.3,66.4,33.8z"/>
</g>
</svg>
